<svg xmlns="http://www.w3.org/2000/svg" xmlns:xlink="http://www.w3.org/1999/xlink" width="1000" zoomAndPan="magnify" viewBox="0 0 750 749.999995" height="1000" preserveAspectRatio="xMidYMid meet" version="1.0"><defs><g/><clipPath id="f0766d93a8"><path d="M 91.902344 324 L 174 324 L 174 545 L 91.902344 545 Z M 91.902344 324 " clip-rule="nonzero"/></clipPath><clipPath id="4980e803a8"><path d="M 565 324 L 646.902344 324 L 646.902344 545 L 565 545 Z M 565 324 " clip-rule="nonzero"/></clipPath><clipPath id="0443025120"><path d="M 255.464844 286.734375 L 483.464844 286.734375 L 483.464844 525 L 255.464844 525 Z M 255.464844 286.734375 " clip-rule="nonzero"/></clipPath></defs><path fill="#7a004b" d="M 612.480469 358.847656 L 583.722656 358.847656 C 583.722656 215.722656 495.589844 115.761719 369.390625 115.761719 C 243.195312 115.761719 155.058594 215.722656 155.058594 358.847656 L 126.304688 358.847656 C 126.304688 284.589844 149.1875 216.640625 190.738281 167.507812 C 235.277344 114.84375 297.054688 87.007812 369.390625 87.007812 C 441.730469 87.007812 503.507812 114.84375 548.046875 167.507812 C 589.597656 216.640625 612.480469 284.589844 612.480469 358.847656 Z M 612.480469 358.847656 " fill-opacity="1" fill-rule="nonzero"/><path fill="#7a004b" d="M 532.261719 197.167969 C 525.203125 197.167969 518.167969 194.292969 513.058594 188.644531 C 476.757812 148.488281 427.078125 127.261719 369.390625 127.261719 C 311.707031 127.261719 262.027344 148.488281 225.726562 188.644531 C 216.136719 199.246094 199.777344 200.070312 189.171875 190.488281 C 178.570312 180.902344 177.746094 164.535156 187.328125 153.933594 C 233.714844 102.625 296.667969 75.503906 369.390625 75.503906 C 442.113281 75.503906 505.066406 102.625 551.453125 153.933594 C 561.039062 164.535156 560.214844 180.902344 549.613281 190.488281 C 544.660156 194.960938 538.449219 197.167969 532.261719 197.167969 Z M 532.261719 197.167969 " fill-opacity="1" fill-rule="nonzero"/><g clip-path="url(#f0766d93a8)"><path fill="#7a004b" d="M 91.902344 434.449219 C 91.902344 495.269531 112.449219 544.574219 173.269531 544.574219 L 173.269531 324.324219 C 112.449219 324.324219 91.902344 373.628906 91.902344 434.449219 Z M 91.902344 434.449219 " fill-opacity="1" fill-rule="nonzero"/></g><path fill="#7a004b" d="M 186.089844 324.324219 L 208.929688 324.324219 L 208.929688 544.574219 L 186.089844 544.574219 Z M 186.089844 324.324219 " fill-opacity="1" fill-rule="nonzero"/><g clip-path="url(#4980e803a8)"><path fill="#7a004b" d="M 646.882812 434.449219 C 646.882812 495.269531 626.332031 544.574219 565.511719 544.574219 L 565.511719 324.324219 C 626.332031 324.324219 646.882812 373.628906 646.882812 434.449219 Z M 646.882812 434.449219 " fill-opacity="1" fill-rule="nonzero"/></g><path fill="#7a004b" d="M 552.695312 544.574219 L 529.855469 544.574219 L 529.855469 324.328125 L 552.695312 324.328125 Z M 552.695312 544.574219 " fill-opacity="1" fill-rule="nonzero"/><path fill="#7a004b" d="M 468.257812 673.648438 L 468.257812 652.5625 C 508.882812 652.5625 538.234375 633.996094 555.492188 597.382812 C 568.828125 569.09375 569.761719 540.644531 569.769531 540.359375 L 590.847656 540.941406 C 590.808594 542.285156 589.761719 574.132812 574.566406 606.371094 C 553.820312 650.386719 517.058594 673.648438 468.257812 673.648438 Z M 468.257812 673.648438 " fill-opacity="1" fill-rule="nonzero"/><path fill="#7a004b" d="M 462.519531 686.953125 L 442.671875 686.953125 C 429.5 686.953125 418.824219 676.277344 418.824219 663.105469 C 418.824219 649.933594 429.5 639.257812 442.671875 639.257812 L 462.519531 639.257812 C 475.691406 639.257812 486.367188 649.933594 486.367188 663.105469 C 486.367188 676.277344 475.691406 686.953125 462.519531 686.953125 Z M 462.519531 686.953125 " fill-opacity="1" fill-rule="nonzero"/><g clip-path="url(#0443025120)"><path fill="#394084" d="M 477.425781 450.1875 L 469.117188 450.1875 L 469.117188 354.246094 C 469.117188 351.078125 466.523438 348.484375 463.355469 348.484375 L 435.648438 348.484375 C 432.480469 348.484375 429.886719 351.078125 429.886719 354.246094 L 429.886719 450.1875 L 416.394531 450.1875 L 416.394531 370.476562 C 416.394531 367.308594 413.800781 364.714844 410.632812 364.714844 L 382.445312 364.714844 C 379.277344 364.714844 376.683594 367.308594 376.683594 370.476562 L 376.683594 406.25 C 374.425781 405.867188 372.121094 405.675781 369.71875 405.675781 C 367.175781 405.675781 364.726562 405.914062 362.324219 406.296875 L 362.324219 354.246094 C 362.324219 351.078125 359.734375 348.484375 356.5625 348.484375 L 328.855469 348.484375 C 325.6875 348.484375 323.09375 351.078125 323.09375 354.246094 L 323.09375 450.1875 L 308.882812 450.1875 L 308.882812 392.324219 C 308.882812 389.15625 306.289062 386.5625 303.121094 386.5625 L 275.414062 386.5625 C 272.242188 386.5625 269.652344 389.15625 269.652344 392.324219 L 269.652344 450.136719 L 261.34375 450.136719 C 258.175781 450.136719 255.582031 452.730469 255.582031 455.902344 C 255.582031 459.070312 258.175781 461.664062 261.34375 461.664062 L 328.089844 461.664062 C 333.46875 479.527344 350.082031 492.539062 369.671875 492.539062 C 379.5625 492.539062 388.734375 489.226562 396.035156 483.605469 L 400.261719 487.832031 L 397.089844 491.003906 C 394.835938 493.257812 394.835938 496.910156 397.089844 499.164062 L 418.21875 520.292969 C 421.339844 523.414062 425.421875 525 429.550781 525 C 433.679688 525 437.761719 523.460938 440.882812 520.292969 C 443.910156 517.269531 445.589844 513.234375 445.542969 508.960938 C 445.542969 504.6875 443.859375 500.652344 440.882812 497.675781 L 419.753906 476.546875 C 418.652344 475.445312 417.210938 474.867188 415.675781 474.867188 C 414.136719 474.867188 412.695312 475.492188 411.59375 476.546875 L 408.421875 479.71875 L 404.199219 475.492188 C 407.320312 471.410156 409.769531 466.753906 411.304688 461.710938 L 477.425781 461.710938 C 480.59375 461.710938 483.1875 459.117188 483.1875 455.949219 C 483.1875 452.78125 480.59375 450.1875 477.425781 450.1875 Z M 415.722656 488.792969 L 432.769531 505.839844 C 433.585938 506.65625 434.066406 507.808594 434.066406 509.007812 C 434.066406 510.210938 433.585938 511.363281 432.769531 512.179688 C 431.039062 513.90625 428.160156 513.90625 426.429688 512.179688 L 409.382812 495.132812 Z M 441.410156 360.007812 L 457.59375 360.007812 L 457.59375 450.1875 L 441.410156 450.1875 Z M 388.207031 376.238281 L 404.871094 376.238281 L 404.871094 423.632812 C 400.597656 417.726562 394.835938 412.972656 388.207031 409.851562 Z M 350.800781 360.007812 L 350.800781 410.042969 C 344.367188 413.164062 338.796875 417.871094 334.621094 423.632812 L 334.621094 360.007812 Z M 281.175781 398.085938 L 297.355469 398.085938 L 297.355469 450.136719 L 281.175781 450.136719 Z M 369.71875 481.0625 C 352.097656 481.0625 337.789062 466.753906 337.789062 449.128906 C 337.789062 431.507812 352.097656 417.199219 369.71875 417.199219 C 387.34375 417.199219 401.652344 431.507812 401.652344 449.128906 C 401.652344 466.753906 387.34375 481.0625 369.71875 481.0625 Z M 289.242188 362.21875 C 300.046875 362.21875 308.882812 353.429688 308.882812 342.578125 C 308.882812 340.5625 308.59375 338.640625 308.015625 336.816406 L 330.347656 321.691406 C 333.707031 324.425781 337.980469 326.058594 342.636719 326.058594 C 349.167969 326.058594 354.980469 322.84375 358.53125 317.945312 L 376.636719 324.089844 C 376.636719 324.332031 376.636719 324.523438 376.636719 324.761719 C 376.636719 335.710938 385.566406 344.644531 396.515625 344.644531 C 407.460938 344.644531 416.347656 335.710938 416.347656 324.761719 C 416.347656 324.523438 416.347656 324.234375 416.347656 323.996094 L 433.632812 317.992188 C 437.1875 322.84375 442.949219 326.011719 449.480469 326.011719 C 460.28125 326.011719 469.117188 317.226562 469.117188 306.371094 C 469.117188 295.570312 460.332031 286.734375 449.480469 286.734375 C 438.675781 286.828125 429.886719 295.617188 429.886719 306.46875 C 429.886719 306.707031 429.886719 306.949219 429.886719 307.140625 L 412.601562 313.144531 C 409 308.195312 403.140625 304.933594 396.5625 304.933594 C 389.9375 304.933594 384.078125 308.195312 380.429688 313.191406 L 362.324219 307.042969 C 362.324219 306.851562 362.324219 306.660156 362.324219 306.46875 C 362.324219 295.664062 353.539062 286.828125 342.6875 286.828125 C 331.882812 286.828125 323.046875 295.617188 323.046875 306.46875 C 323.046875 308.484375 323.335938 310.40625 323.910156 312.183594 L 301.582031 327.308594 C 298.222656 324.570312 293.949219 322.9375 289.289062 322.9375 C 278.484375 322.9375 269.652344 331.726562 269.652344 342.578125 C 269.652344 353.429688 278.4375 362.21875 289.242188 362.21875 Z M 449.480469 298.355469 C 453.945312 298.355469 457.59375 302.003906 457.59375 306.46875 C 457.59375 310.933594 453.945312 314.582031 449.480469 314.582031 C 445.011719 314.582031 441.363281 310.933594 441.363281 306.46875 C 441.410156 302.003906 445.011719 298.355469 449.480469 298.355469 Z M 396.515625 316.457031 C 401.125 316.457031 404.820312 320.203125 404.820312 324.761719 C 404.820312 329.375 401.078125 333.117188 396.515625 333.117188 C 391.90625 333.117188 388.160156 329.375 388.160156 324.761719 C 388.207031 320.203125 391.953125 316.457031 396.515625 316.457031 Z M 342.6875 298.355469 C 347.152344 298.355469 350.800781 302.003906 350.800781 306.46875 C 350.800781 310.933594 347.152344 314.582031 342.6875 314.582031 C 338.222656 314.582031 334.570312 310.933594 334.570312 306.46875 C 334.570312 302.003906 338.222656 298.355469 342.6875 298.355469 Z M 289.242188 334.511719 C 293.707031 334.511719 297.355469 338.160156 297.355469 342.625 C 297.355469 347.09375 293.707031 350.742188 289.242188 350.742188 C 284.777344 350.742188 281.128906 347.09375 281.128906 342.625 C 281.175781 338.113281 284.824219 334.511719 289.242188 334.511719 Z M 289.242188 334.511719 " fill-opacity="1" fill-rule="nonzero"/></g><g fill="#000000" fill-opacity="1"><g transform="translate(236.603772, 268.983127)"><g><path d="M 0.71875 -59.40625 L 0.71875 -74.25 L 52.921875 -74.25 L 52.921875 -59.40625 L 35.28125 -59.40625 L 35.28125 0 L 18.359375 0 L 18.359375 -59.40625 Z M 0.71875 -59.40625 "/></g></g></g><g fill="#000000" fill-opacity="1"><g transform="translate(290.236792, 268.983127)"><g><path d="M 72.546875 -41.578125 L 72.546875 -25.46875 C 70.617188 -16.644531 66.414062 -9.96875 59.9375 -5.4375 C 53.457031 -0.914062 46.226562 1.34375 38.25 1.34375 C 28.226562 1.34375 19.691406 -2.40625 12.640625 -9.90625 C 5.585938 -17.40625 2.0625 -26.460938 2.0625 -37.078125 C 2.0625 -47.878906 5.507812 -57 12.40625 -64.4375 C 19.3125 -71.875 27.925781 -75.59375 38.25 -75.59375 C 50.3125 -75.59375 59.851562 -71.363281 66.875 -62.90625 L 55.796875 -50.765625 C 51.835938 -57.117188 46.316406 -60.296875 39.234375 -60.296875 C 34.015625 -60.296875 29.5625 -58.03125 25.875 -53.5 C 22.1875 -48.96875 20.34375 -43.492188 20.34375 -37.078125 C 20.34375 -30.773438 22.1875 -25.390625 25.875 -20.921875 C 29.5625 -16.453125 34.015625 -14.21875 39.234375 -14.21875 C 43.554688 -14.21875 47.320312 -15.519531 50.53125 -18.125 C 53.738281 -20.738281 55.34375 -24.207031 55.34375 -28.53125 L 38.25 -28.53125 L 38.25 -41.578125 Z M 72.546875 -41.578125 "/></g></g></g><g fill="#000000" fill-opacity="1"><g transform="translate(364.83708, 268.983127)"><g><path d="M 47.875 -74.25 L 47.875 -59.40625 L 22.3125 -59.40625 L 22.3125 -44.640625 L 46.796875 -44.640625 L 46.796875 -29.796875 L 22.3125 -29.796875 L 22.3125 -14.84375 L 47.875 -14.84375 L 47.875 0 L 5.40625 0 L 5.40625 -74.25 Z M 47.875 -74.25 "/></g></g></g><g fill="#000000" fill-opacity="1"><g transform="translate(417.030284, 268.983127)"><g><path d="M 66.78125 0 L 63.265625 -44.015625 L 62.8125 -44.015625 L 47.609375 -0.453125 L 37.53125 -0.453125 L 22.3125 -44.015625 L 21.875 -44.015625 L 18.359375 0 L 1.4375 0 L 8.09375 -74.25 L 26.09375 -74.25 L 42.5625 -31.40625 L 59.046875 -74.25 L 77.046875 -74.25 L 83.703125 0 Z M 66.78125 0 "/></g></g></g><g fill="#7a6200" fill-opacity="1"><g transform="translate(243.435807, 594.778239)"><g><path d="M 21.84375 -50.40625 C 24.519531 -50.40625 27.140625 -50.015625 29.703125 -49.234375 C 32.265625 -48.453125 34.164062 -47.679688 35.40625 -46.921875 L 37.203125 -45.71875 L 32.640625 -36.71875 C 32.273438 -36.957031 31.773438 -37.265625 31.140625 -37.640625 C 30.503906 -38.023438 29.304688 -38.535156 27.546875 -39.171875 C 25.785156 -39.816406 24.144531 -40.140625 22.625 -40.140625 C 20.738281 -40.140625 19.285156 -39.738281 18.265625 -38.9375 C 17.242188 -38.132812 16.734375 -37.054688 16.734375 -35.703125 C 16.734375 -35.023438 16.972656 -34.394531 17.453125 -33.8125 C 17.941406 -33.226562 18.765625 -32.601562 19.921875 -31.9375 C 21.078125 -31.28125 22.09375 -30.753906 22.96875 -30.359375 C 23.851562 -29.960938 25.21875 -29.363281 27.0625 -28.5625 C 30.257812 -27.195312 32.988281 -25.34375 35.25 -23 C 37.507812 -20.664062 38.640625 -18.019531 38.640625 -15.0625 C 38.640625 -12.21875 38.128906 -9.734375 37.109375 -7.609375 C 36.085938 -5.492188 34.6875 -3.835938 32.90625 -2.640625 C 31.125 -1.441406 29.15625 -0.550781 27 0.03125 C 24.84375 0.613281 22.503906 0.90625 19.984375 0.90625 C 17.816406 0.90625 15.691406 0.679688 13.609375 0.234375 C 11.535156 -0.203125 9.796875 -0.75 8.390625 -1.40625 C 6.992188 -2.070312 5.734375 -2.722656 4.609375 -3.359375 C 3.492188 -3.992188 2.675781 -4.535156 2.15625 -4.984375 L 1.375 -5.640625 L 7.015625 -15.125 C 7.492188 -14.71875 8.15625 -14.203125 9 -13.578125 C 9.84375 -12.960938 11.332031 -12.132812 13.46875 -11.09375 C 15.613281 -10.0625 17.503906 -9.546875 19.140625 -9.546875 C 23.898438 -9.546875 26.28125 -11.164062 26.28125 -14.40625 C 26.28125 -15.082031 26.109375 -15.707031 25.765625 -16.28125 C 25.429688 -16.863281 24.832031 -17.445312 23.96875 -18.03125 C 23.113281 -18.613281 22.351562 -19.070312 21.6875 -19.40625 C 21.03125 -19.75 19.953125 -20.269531 18.453125 -20.96875 C 16.953125 -21.664062 15.84375 -22.195312 15.125 -22.5625 C 12.125 -24.039062 9.800781 -25.890625 8.15625 -28.109375 C 6.519531 -30.328125 5.703125 -32.71875 5.703125 -35.28125 C 5.703125 -39.71875 7.34375 -43.347656 10.625 -46.171875 C 13.90625 -48.992188 17.644531 -50.40625 21.84375 -50.40625 Z M 21.84375 -50.40625 "/></g></g></g><g fill="#7a6200" fill-opacity="1"><g transform="translate(283.747961, 594.778239)"><g><path d="M 3.59375 -49.5 L 21.65625 -49.5 C 26.695312 -49.5 30.773438 -48.195312 33.890625 -45.59375 C 37.015625 -43 38.578125 -39.21875 38.578125 -34.25 C 38.578125 -29.289062 36.992188 -25.398438 33.828125 -22.578125 C 30.671875 -19.765625 26.613281 -18.359375 21.65625 -18.359375 L 14.875 -18.359375 L 14.875 0 L 3.59375 0 Z M 14.875 -27.359375 L 18.0625 -27.359375 C 20.582031 -27.359375 22.648438 -27.867188 24.265625 -28.890625 C 25.890625 -29.910156 26.703125 -31.582031 26.703125 -33.90625 C 26.703125 -36.257812 25.890625 -37.945312 24.265625 -38.96875 C 22.648438 -39.988281 20.582031 -40.5 18.0625 -40.5 L 14.875 -40.5 Z M 14.875 -27.359375 "/></g></g></g><g fill="#7a6200" fill-opacity="1"><g transform="translate(323.700177, 594.778239)"><g><path d="M 1.375 -24.78125 C 1.375 -31.9375 3.8125 -37.992188 8.6875 -42.953125 C 13.570312 -47.921875 19.457031 -50.40625 26.34375 -50.40625 C 33.257812 -50.40625 39.132812 -47.929688 43.96875 -42.984375 C 48.8125 -38.046875 51.234375 -31.976562 51.234375 -24.78125 C 51.234375 -17.539062 48.851562 -11.445312 44.09375 -6.5 C 39.332031 -1.5625 33.414062 0.90625 26.34375 0.90625 C 19.101562 0.90625 13.128906 -1.539062 8.421875 -6.4375 C 3.722656 -11.34375 1.375 -17.457031 1.375 -24.78125 Z M 13.5625 -24.78125 C 13.5625 -22.175781 13.957031 -19.800781 14.75 -17.65625 C 15.550781 -15.519531 16.953125 -13.710938 18.953125 -12.234375 C 20.953125 -10.753906 23.414062 -10.015625 26.34375 -10.015625 C 30.539062 -10.015625 33.707031 -11.453125 35.84375 -14.328125 C 37.988281 -17.210938 39.0625 -20.695312 39.0625 -24.78125 C 39.0625 -28.820312 37.96875 -32.289062 35.78125 -35.1875 C 33.601562 -38.09375 30.457031 -39.546875 26.34375 -39.546875 C 22.257812 -39.546875 19.109375 -38.09375 16.890625 -35.1875 C 14.671875 -32.289062 13.5625 -28.820312 13.5625 -24.78125 Z M 13.5625 -24.78125 "/></g></g></g><g fill="#7a6200" fill-opacity="1"><g transform="translate(376.309934, 594.778239)"><g><path d="M 3.59375 -49.5 L 21.296875 -49.5 C 26.054688 -49.5 29.9375 -48.226562 32.9375 -45.6875 C 35.9375 -43.144531 37.4375 -39.515625 37.4375 -34.796875 C 37.4375 -31.160156 36.523438 -28.109375 34.703125 -25.640625 C 32.890625 -23.179688 30.421875 -21.453125 27.296875 -20.453125 L 44.34375 0 L 30 0 L 14.875 -19.5625 L 14.875 0 L 3.59375 0 Z M 14.875 -27.546875 L 16.203125 -27.546875 C 17.242188 -27.546875 18.125 -27.5625 18.84375 -27.59375 C 19.5625 -27.632812 20.378906 -27.773438 21.296875 -28.015625 C 22.222656 -28.253906 22.960938 -28.59375 23.515625 -29.03125 C 24.078125 -29.476562 24.554688 -30.117188 24.953125 -30.953125 C 25.359375 -31.796875 25.5625 -32.816406 25.5625 -34.015625 C 25.5625 -35.210938 25.359375 -36.234375 24.953125 -37.078125 C 24.554688 -37.921875 24.078125 -38.5625 23.515625 -39 C 22.960938 -39.4375 22.222656 -39.773438 21.296875 -40.015625 C 20.378906 -40.253906 19.5625 -40.394531 18.84375 -40.4375 C 18.125 -40.476562 17.242188 -40.5 16.203125 -40.5 L 14.875 -40.5 Z M 14.875 -27.546875 "/></g></g></g><g fill="#7a6200" fill-opacity="1"><g transform="translate(419.261566, 594.778239)"><g><path d="M 0.484375 -39.59375 L 0.484375 -49.5 L 35.28125 -49.5 L 35.28125 -39.59375 L 23.515625 -39.59375 L 23.515625 0 L 12.234375 0 L 12.234375 -39.59375 Z M 0.484375 -39.59375 "/></g></g></g><g fill="#7a6200" fill-opacity="1"><g transform="translate(455.0146, 594.778239)"><g><path d="M 21.84375 -50.40625 C 24.519531 -50.40625 27.140625 -50.015625 29.703125 -49.234375 C 32.265625 -48.453125 34.164062 -47.679688 35.40625 -46.921875 L 37.203125 -45.71875 L 32.640625 -36.71875 C 32.273438 -36.957031 31.773438 -37.265625 31.140625 -37.640625 C 30.503906 -38.023438 29.304688 -38.535156 27.546875 -39.171875 C 25.785156 -39.816406 24.144531 -40.140625 22.625 -40.140625 C 20.738281 -40.140625 19.285156 -39.738281 18.265625 -38.9375 C 17.242188 -38.132812 16.734375 -37.054688 16.734375 -35.703125 C 16.734375 -35.023438 16.972656 -34.394531 17.453125 -33.8125 C 17.941406 -33.226562 18.765625 -32.601562 19.921875 -31.9375 C 21.078125 -31.28125 22.09375 -30.753906 22.96875 -30.359375 C 23.851562 -29.960938 25.21875 -29.363281 27.0625 -28.5625 C 30.257812 -27.195312 32.988281 -25.34375 35.25 -23 C 37.507812 -20.664062 38.640625 -18.019531 38.640625 -15.0625 C 38.640625 -12.21875 38.128906 -9.734375 37.109375 -7.609375 C 36.085938 -5.492188 34.6875 -3.835938 32.90625 -2.640625 C 31.125 -1.441406 29.15625 -0.550781 27 0.03125 C 24.84375 0.613281 22.503906 0.90625 19.984375 0.90625 C 17.816406 0.90625 15.691406 0.679688 13.609375 0.234375 C 11.535156 -0.203125 9.796875 -0.75 8.390625 -1.40625 C 6.992188 -2.070312 5.734375 -2.722656 4.609375 -3.359375 C 3.492188 -3.992188 2.675781 -4.535156 2.15625 -4.984375 L 1.375 -5.640625 L 7.015625 -15.125 C 7.492188 -14.71875 8.15625 -14.203125 9 -13.578125 C 9.84375 -12.960938 11.332031 -12.132812 13.46875 -11.09375 C 15.613281 -10.0625 17.503906 -9.546875 19.140625 -9.546875 C 23.898438 -9.546875 26.28125 -11.164062 26.28125 -14.40625 C 26.28125 -15.082031 26.109375 -15.707031 25.765625 -16.28125 C 25.429688 -16.863281 24.832031 -17.445312 23.96875 -18.03125 C 23.113281 -18.613281 22.351562 -19.070312 21.6875 -19.40625 C 21.03125 -19.75 19.953125 -20.269531 18.453125 -20.96875 C 16.953125 -21.664062 15.84375 -22.195312 15.125 -22.5625 C 12.125 -24.039062 9.800781 -25.890625 8.15625 -28.109375 C 6.519531 -30.328125 5.703125 -32.71875 5.703125 -35.28125 C 5.703125 -39.71875 7.34375 -43.347656 10.625 -46.171875 C 13.90625 -48.992188 17.644531 -50.40625 21.84375 -50.40625 Z M 21.84375 -50.40625 "/></g></g></g></svg>